PathFileType	4	(X/Y/Z)	D:\Documents\Paper\paper_current\paper_step_1_data\data_step_3\marker\30DL\subject_01.tsv
DataRate	CameraRate	NumFrames	NumMarkers	Units	OrigDataRate	OrigDataStartFrame	OrigNumFrames
200	200	4	43	mm	200	1391	200
Frame#	Time	Top.Head			L.Acromium			R.Acromium			Sternum			L.ASIS			R.ASIS			V.Sacral			R.Knee.Lat			R.Knee.Med			L.Knee.Lat			L.Knee.Med			L.Ankle.Lat			L.Toe.Tip			R.Heel			R.Ankle.Med			R.Ankle.Lat			L.Toe.Med			L.Toe.Lat			L.Heel			L.Ankle.Med			L.Shank1			L.Shank2			R.Toe.Tip			R.Toe.Med			R.Toe.Lat			L.Thigh2			L.Thigh1			L.Thigh3			R.Thigh3			R.Thigh1			R.Thigh2			R.Shank1			R.Shank2			R.Shank3			L.Shank3			L.Shank4			R.Shank4			L.Thigh4			R.Thigh4			R.Heel.Lat			R.Heel.Med			L.Heel.Lat			L.Heel.Med		
		X1	Y1	Z1	X2	Y2	Z2	X3	Y3	Z3	X4	Y4	Z4	X5	Y5	Z5	X6	Y6	Z6	X7	Y7	Z7	X8	Y8	Z8	X9	Y9	Z9	X10	Y10	Z10	X11	Y11	Z11	X12	Y12	Z12	X13	Y13	Z13	X14	Y14	Z14	X15	Y15	Z15	X16	Y16	Z16	X17	Y17	Z17	X18	Y18	Z18	X19	Y19	Z19	X20	Y20	Z20	X21	Y21	Z21	X22	Y22	Z22	X23	Y23	Z23	X24	Y24	Z24	X25	Y25	Z25	X26	Y26	Z26	X27	Y27	Z27	X28	Y28	Z28	X29	Y29	Z29	X30	Y30	Z30	X31	Y31	Z31	X32	Y32	Z32	X33	Y33	Z33	X34	Y34	Z34	X35	Y35	Z35	X36	Y36	Z36	X37	Y37	Z37	X38	Y38	Z38	X39	Y39	Z39	X40	Y40	Z40	X41	Y41	Z41	X42	Y42	Z42	X43	Y43	Z43
1989	9.94	-13.48	1621.676	-665.853	-213.1	1426.201	-906.331	-255.985	1434.738	-576.615	-150.215	1340.486	-723.002	-198.721	932.034	-854.712	-191.876	940.938	-617.557	-361.908	964.596	-722.146	-128.653	495.79	-612.556	-125.606	492.519	-723.18	-262.207	484.833	-884.617	-219.697	469.367	-779.61	-301	106.694	-855.562	-118.446	56.58	-886.611	-329.304	100.466	-679.668	-208.887	151.618	-703.608	-247.19	143.6	-620.24	-149.063	49.333	-823.578	-210.966	44.732	-909.774	-379.445	40.112	-784.249	-271.066	116.23	-773.588	-243.568	395.94	-896.999	-248.043	313.365	-906.898	-54.684	54.154	-625.027	-106.177	59.429	-680.173	-155.689	47.155	-583.818	-205.286	626.34	-901.214	-213.886	708.108	-906.326	-277.039	702.024	-914.235	-200.225	643.177	-578.313	-137.608	656.203	-571.747	-113.678	578.781	-590.765	-110.536	407.631	-591.634	-140.24	325.813	-591.051	-169.55	430.473	-584.051	-307.49	399.15	-892.07	-315.718	311.476	-898.398	-198.074	352.54	-583.406	-270.374	614.16	-908.317	-177.163	563.588	-596.681	-296.305	80.248	-623.786	-262.8	82.008	-720.279	-343.064	25.591	-849.165	-301.724	38.028	-751.198
1990	9.945	-17.337	1622.112	-665.393	-216.196	1426.158	-906.111	-259.549	1434.804	-576.48	-153.497	1340.585	-722.675	-201.656	931.942	-854.162	-195.171	940.714	-617.059	-365.029	964.789	-721.953	-134.779	494.869	-612.303	-131.657	491.653	-722.925	-265.028	484.885	-884.401	-222.644	469.444	-779.321	-301.438	106.461	-855.636	-118.569	56.756	-886.565	-342.859	103.051	-679.046	-221.581	152.413	-703.322	-259.892	145.379	-619.682	-149.183	49.374	-823.515	-211.066	44.651	-909.708	-379.564	39.982	-784.348	-271.632	116.049	-773.693	-245.747	395.899	-896.659	-249.753	313.423	-906.725	-68.779	52.965	-625.045	-120.338	58.855	-680.07	-169.757	47.503	-583.577	-208.166	626.462	-900.796	-216.81	708.195	-905.821	-279.883	702.146	-914.05	-205.253	642.477	-578.073	-142.673	655.028	-571.194	-119.199	577.534	-590.398	-118.169	406.426	-591.417	-149.443	325.303	-590.793	-176.698	430.512	-583.814	-309.973	398.904	-891.888	-317.653	311.16	-898.193	-206.869	353.114	-583.204	-273.238	614.324	-908.175	-182.432	562.822	-596.151	-310.183	82.166	-622.881	-276.659	83.765	-719.948	-343.148	25.415	-849.116	-301.258	38.261	-751.313
1991	9.95	-21.278	1622.539	-665.068	-219.333	1426.06	-905.861	-263.102	1434.788	-576.292	-156.783	1340.626	-722.324	-204.679	931.906	-853.677	-198.46	940.429	-616.527	-368.172	964.961	-721.755	-140.962	493.899	-612.003	-137.803	490.705	-722.639	-267.77	484.902	-884.168	-225.541	469.494	-779.004	-301.836	106.225	-855.682	-118.69	56.9	-886.51	-356.425	105.635	-678.274	-234.235	153.236	-702.987	-272.483	147.134	-619.085	-149.282	49.41	-823.447	-211.157	44.597	-909.641	-379.668	39.818	-784.425	-272.17	115.863	-773.752	-247.772	395.771	-896.251	-251.457	313.49	-906.563	-82.852	51.756	-625.084	-134.5	58.305	-679.966	-183.759	47.827	-583.314	-210.988	626.558	-900.343	-219.661	708.261	-905.342	-282.682	702.218	-913.845	-210.395	641.756	-577.775	-147.785	653.84	-570.668	-124.871	576.2	-589.96	-125.848	405.252	-591.08	-158.635	324.703	-590.522	-183.902	430.469	-583.525	-312.383	398.64	-891.664	-319.484	310.864	-898.091	-215.51	353.721	-582.964	-276.011	614.392	-908.018	-187.925	562.043	-595.831	-323.752	84.558	-622.221	-290.557	85.621	-719.508	-343.186	25.265	-849.108	-300.793	38.477	-751.466
1992	9.955	-25.288	1623.076	-664.793	-222.512	1425.909	-905.582	-266.64	1434.695	-576.05	-160.072	1340.612	-721.948	-207.676	931.758	-853.089	-201.746	940.089	-615.964	-371.358	965.12	-721.557	-147.201	492.895	-611.651	-144.046	489.682	-722.319	-270.426	484.886	-883.924	-228.385	469.517	-778.664	-302.199	105.989	-855.704	-118.81	57.009	-886.447	-369.99	108.22	-677.359	-246.842	154.086	-702.605	-284.955	148.838	-618.457	-149.364	49.429	-823.373	-211.243	44.577	-909.58	-379.758	39.615	-784.484	-272.679	115.679	-773.762	-249.674	395.594	-895.812	-253.15	313.565	-906.413	-96.889	50.551	-625.129	-148.645	57.788	-679.853	-197.683	48.135	-583.023	-213.75	626.631	-899.86	-222.441	708.313	-904.903	-285.431	702.244	-913.625	-215.666	641.007	-577.352	-152.989	652.686	-570.074	-130.58	574.861	-589.533	-133.652	402.48	-591.403	-167.864	324.14	-590.125	-191.062	430.151	-582.803	-314.602	398.367	-891.488	-321.184	310.516	-897.996	-223.904	354.019	-581.002	-278.734	614.413	-907.828	-193.451	561.209	-595.316	-337.209	86.962	-621.439	-304.472	87.537	-718.94	-343.252	25.09	-849.085	-300.38	38.638	-751.642
